<?xml version="1.0"?>
<svg xmlns="http://www.w3.org/2000/svg" id="Layer_3" enable-background="new 0 0 64 64" height="512px" viewBox="0 0 64 64" width="512px"><g><g><path d="m3 1h-2v61c0 .553.447 1 1 1h61v-2h-60z" data-original="#000000" class="active-path" data-old_color="#000000" fill="#C12020"/><path d="m7 55h6v2h-6z" data-original="#000000" class="active-path" data-old_color="#000000" fill="#C12020"/><path d="m7 45h6v2h-6z" data-original="#000000" class="active-path" data-old_color="#000000" fill="#C12020"/><path d="m7 35h6v2h-6z" data-original="#000000" class="active-path" data-old_color="#000000" fill="#C12020"/><path d="m7 25h6v2h-6z" data-original="#000000" class="active-path" data-old_color="#000000" fill="#C12020"/><path d="m7 15h6v2h-6z" data-original="#000000" class="active-path" data-old_color="#000000" fill="#C12020"/><path d="m7 5h6v2h-6z" data-original="#000000" class="active-path" data-old_color="#000000" fill="#C12020"/><path d="m63 7v-2h-12.884l.839-2.704-1.91-.593-1.023 3.297h-31.022v2h30.401l-2.483 8h-17.908c-2.31-3.075-5.97-5-10.01-5v2c2.832 0 5.438 1.128 7.354 3h-7.354v2h8.954c.557.904.991 1.9 1.259 2.974l1.256 5.026h-11.469v2h12.038c.895 2.462 2.973 4.26 5.496 4.807l-.721 3.193h-16.813v2h16.362l-1.806 8h-7.037l-1.579-4.342-1.879.684 1.33 3.658h-5.391v2h6.118l1.145 3.147c.619 1.707 2.256 2.853 4.072 2.853 2.04 0 3.779-1.39 4.228-3.379l.591-2.621h18.093l.781 3.234 1.943-.469-.667-2.765h9.696v-2h-10.179l-1.931-8h12.11v-2h-12.592l-1.931-8h14.523v-2h-15.006l-.091-.376c-.387-1.605-1.395-2.91-2.722-3.723l1.211-3.901h16.608v-2h-15.988l2.483-8zm-31.789 20h4.409l-.646 2.862c-1.623-.347-2.995-1.397-3.763-2.862zm6.925-2c.473-1.771 2.046-3 3.894-3 .237 0 .47.021.697.06l-.912 2.94zm2.956 2c-.818 1.573-2.325 2.661-4.084 2.931l.662-2.931zm-10.481 22.181c-.241 1.071-1.177 1.819-2.276 1.819-.978 0-1.859-.617-2.193-1.536l-.896-2.464h5.858zm20.154-4.181h-17.159l1.806-8h13.421zm-2.414-10h-12.487l.685-3.032c3.049-.16 5.665-2.096 6.709-4.968h3.163zm-2.422-10h-2.02l.654-2.108c.652.525 1.137 1.253 1.366 2.108zm-2.61-4.846c-.418-.091-.846-.154-1.289-.154-2.843 0-5.267 1.937-5.894 4.711l-.065.289h-5.541l-1.378-5.511c-.219-.876-.535-1.705-.92-2.489h16.065z" data-original="#000000" class="active-path" data-old_color="#000000" fill="#C12020"/><path d="m17 55h46v2h-46z" data-original="#000000" class="active-path" data-old_color="#000000" fill="#C12020"/></g></g> </svg>
